<mxfile host="app.diagrams.net" modified="2023-11-09T02:50:27.426Z" agent="Mozilla/5.0 (Windows NT 10.0; Win64; x64) AppleWebKit/537.36 (KHTML, like Gecko) Chrome/119.0.0.0 Safari/537.36" version="22.1.0" etag="T84z8Jo-JGw9aThpfghU" type="github">
  <diagram name="Page-1" id="pAkojCH3EI3O4TzqXFRC">
    <mxGraphModel>
      <root>
        <mxCell id="0" />
        <mxCell id="1" parent="0" />
      </root>
    </mxGraphModel>
  </diagram>
</mxfile>
